<svg version="1.1" xmlns="http://www.w3.org/2000/svg" xmlns:xlink="http://www.w3.org/1999/xlink" width="218.25177" height="236.75177" viewBox="0,0,218.25177,236.75177"><defs><radialGradient cx="180" cy="353" r="43.5" gradientUnits="userSpaceOnUse" id="color-1"><stop offset="0" stop-color="#cccccc" stop-opacity="0.04314"/><stop offset="1" stop-color="#cccccc" stop-opacity="0"/></radialGradient></defs><g transform="translate(-5.5,-160)"><g data-paper-data="{&quot;isPaintingLayer&quot;:true}" fill-rule="nonzero" stroke-linecap="butt" stroke-linejoin="miter" stroke-miterlimit="10" stroke-dasharray="" stroke-dashoffset="0" style="mix-blend-mode: normal"><path d="M136.60455,349.98589c1.66465,-23.96665 22.44291,-42.04599 46.40956,-40.38134c23.96665,1.66465 42.04599,22.44291 40.38134,46.40956c-1.66465,23.96665 -22.44291,42.04599 -46.40956,40.38134c-23.96665,-1.66465 -42.04599,-22.44291 -40.38134,-46.40956z" fill="url(#color-1)" stroke="#fbfbfb" stroke-width="0.5"/><path d="M188.41828,380.75127c-15.32661,4.64929 -31.52025,-4.00638 -36.16954,-19.33299c-4.64929,-15.32661 4.00638,-31.52025 19.33299,-36.16954c15.32661,-4.64929 31.52025,4.00638 36.16954,19.33299c4.64929,15.32661 -4.00638,31.52025 -19.33299,36.16954z" fill-opacity="0.21176" fill="#cccccc" stroke="none" stroke-width="0"/><path d="M5.5,160z" fill="#fbfbfb" stroke="none" stroke-width="0"/></g></g></svg>