<svg version="1.1" xmlns="http://www.w3.org/2000/svg" xmlns:xlink="http://www.w3.org/1999/xlink" width="37.18437" height="37.18438" viewBox="0,0,37.18437,37.18438"><g transform="translate(-161.40783,-334.40782)"><g data-paper-data="{&quot;isPaintingLayer&quot;:true}" fill-rule="nonzero" stroke="none" stroke-width="0" stroke-linecap="butt" stroke-linejoin="miter" stroke-miterlimit="10" stroke-dasharray="" stroke-dashoffset="0" style="mix-blend-mode: normal"><path d="M191.84269,364.50855c-6.35599,6.54054 -16.81069,6.69014 -23.35123,0.33416c-6.54054,-6.35599 -6.69014,-16.81069 -0.33416,-23.35123c6.35599,-6.54054 16.81069,-6.69014 23.35123,-0.33415c6.54054,6.35599 6.69014,16.81069 0.33415,23.35123z" fill="#ffffff"/><path d="M180,337.26135c-8.69185,0 -15.73865,7.0468 -15.73865,15.73865c0,8.69186 7.0468,15.73866 15.73865,15.73866c8.69186,0 15.73866,-7.0468 15.73866,-15.73866c0,-8.69185 -7.04681,-15.73865 -15.73866,-15.73865M180,334.40782c4.96657,0 9.63496,1.93326 13.14623,5.44596c3.5127,3.51126 5.44596,8.18107 5.44596,13.14622c0,4.96514 -1.93469,9.63496 -5.44596,13.14623c-3.51127,3.5127 -8.18108,5.44596 -13.14622,5.44596c-4.96514,0 -9.63353,-1.9347 -13.14622,-5.44596c-3.5127,-3.51126 -5.44596,-8.17965 -5.44596,-13.14623c0,-4.96658 1.93469,-9.63351 5.44596,-13.14622c3.51127,-3.5127 8.17965,-5.44596 13.14622,-5.44596z" fill="#44b870"/><g><path d="M187.71418,359.43655c0.00856,0.50507 -0.16835,0.94023 -0.62207,1.1728c-0.56358,0.28963 -1.19135,0.27679 -1.64364,-0.1655c-2.21576,-2.16441 -4.42155,-4.34023 -6.57597,-6.56598c-0.64062,-0.66202 -0.38237,-1.42392 0.22258,-2.03028c2.02172,-2.03028 4.04202,-4.062 6.08943,-6.06518c0.65488,-0.64061 1.48098,-0.86034 2.17582,-0.13127c0.71909,0.75476 0.33529,1.51522 -0.2982,2.15441c-1.39966,1.41108 -2.77934,2.84497 -4.22894,4.20468c-0.78615,0.73763 -0.76332,1.28409 0.01141,2.00889c1.36541,1.27838 2.66234,2.62954 3.98353,3.95356c0.41376,0.41376 0.8475,0.81896 0.8846,1.46386z" fill="#3db169"/><path d="M172.28727,359.43655c0.0371,-0.6449 0.47084,-1.0501 0.8846,-1.46386c1.32119,-1.32403 2.61812,-2.67518 3.98353,-3.95356c0.77473,-0.7248 0.79756,-1.27126 0.01141,-2.00889c-1.4496,-1.35971 -2.82928,-2.7936 -4.22894,-4.20468c-0.63349,-0.63919 -1.0173,-1.39965 -0.2982,-2.15441c0.69484,-0.72907 1.52094,-0.50934 2.17582,0.13127c2.04741,2.00317 4.06771,4.0349 6.08943,6.06518c0.60495,0.60636 0.8632,1.36826 0.22258,2.03028c-2.15442,2.22575 -4.36021,4.40157 -6.57597,6.56598c-0.45229,0.4423 -1.08006,0.45514 -1.64364,0.1655c-0.45372,-0.23257 -0.63063,-0.66773 -0.62207,-1.1728z" data-paper-data="{&quot;index&quot;:null}" fill="#3db169"/></g></g></g></svg>