<svg xmlns="http://www.w3.org/2000/svg" viewBox="0 0 256.92 256.12" data-name="Слой 2" id="_Слой_2">
  <defs>
    <style>
      .cls-1 {
        fill: #ccc;
      }

      .cls-1, .cls-2 {
        stroke-width: 0px;
      }

      .cls-2 {
        fill: #fbfbfb;
      }
    </style>
  </defs>
  <g data-name="Слой 1" id="_Слой_1-2">
    <g>
      <path d="M244.56.5H12.36C5.81.5.5,5.81.5,12.36v231.4c0,6.55,5.31,11.86,11.86,11.86h232.2c6.55,0,11.86-5.31,11.86-11.86V12.36c0-6.55-5.31-11.86-11.86-11.86ZM200.81,59.69c0-2.2,1.78-3.98,3.98-3.98h10.39c2.2,0,3.98,1.78,3.98,3.98v10.39c0,2.2-1.78,3.98-3.98,3.98h-10.39c-2.2,0-3.98-1.78-3.98-3.98v-10.39ZM164.14,23.01c0-2.2,1.78-3.98,3.98-3.98h10.39c2.2,0,3.98,1.78,3.98,3.98v10.39c0,2.2-1.78,3.98-3.98,3.98h-10.39c-2.2,0-3.98-1.78-3.98-3.98v-10.39ZM90.79,41.35c0-2.2,1.78-3.98,3.98-3.98h10.39c2.2,0,3.98,1.78,3.98,3.98v10.39c0,2.2-1.78,3.98-3.98,3.98h-10.39c-2.2,0-3.98-1.78-3.98-3.98v-10.39ZM90.79,96.36c0-2.2,1.78-3.98,3.98-3.98-2.2,0-3.98-1.78-3.98-3.98v-10.39c0-2.2,1.78-3.98,3.98-3.98h10.39c2.2,0,3.98,1.78,3.98,3.98v10.39c0,2.2-1.78,3.98-3.98,3.98,2.2,0,3.98,1.78,3.98,3.98v10.39c0,2.2-1.78,3.98-3.98,3.98h-10.39c-2.2,0-3.98-1.78-3.98-3.98v-10.39ZM54.11,78.02c0-2.2,1.78-3.98,3.98-3.98h10.39c2.2,0,3.98,1.78,3.98,3.98v10.39c0,2.2-1.78,3.98-3.98,3.98h-10.39c-2.2,0-3.98-1.78-3.98-3.98,0,2.2-1.78,3.98-3.98,3.98h-10.39c-2.2,0-3.98-1.78-3.98-3.98v-10.39c0-2.2,1.78-3.98,3.98-3.98h10.39c2.2,0,3.98,1.78,3.98,3.98ZM29.51,8.87c10.13,0,18.34,8.21,18.34,18.34s-8.21,18.34-18.34,18.34-18.34-8.21-18.34-18.34S19.39,8.87,29.51,8.87ZM35.77,114.7v10.39c0,2.2-1.78,3.98-3.98,3.98h-10.39c-2.2,0-3.98-1.78-3.98-3.98v-10.39c0-2.2,1.78-3.98,3.98-3.98h10.39c2.2,0,3.98,1.78,3.98,3.98ZM47.24,241.55c0,1.58-1.28,2.87-2.87,2.87H13.43c-1.58,0-2.87-1.28-2.87-2.87v-30.94c0-1.58,1.28-2.87,2.87-2.87h30.94c1.58,0,2.87,1.28,2.87,2.87v30.94ZM54.11,198.43c0,2.2-1.78,3.98-3.98,3.98h-10.39c-2.2,0-3.98-1.78-3.98-3.98v-10.39c0-2.2,1.78-3.98,3.98-3.98h10.39c2.2,0,3.98,1.78,3.98,3.98v10.39ZM68.47,147.4h-10.39c-2.2,0-3.98-1.78-3.98-3.98v-10.39c0-2.2,1.78-3.98,3.98-3.98h10.39c2.2,0,3.98,1.78,3.98,3.98,0-2.2,1.78-3.98,3.98-3.98h10.39c2.2,0,3.98,1.78,3.98,3.98v10.39c0,2.2-1.78,3.98-3.98,3.98h-10.39c-2.2,0-3.98-1.78-3.98-3.98,0,2.2-1.78,3.98-3.98,3.98ZM90.79,169.71v10.39c0,2.2-1.78,3.98-3.98,3.98h-10.39c-2.2,0-3.98-1.78-3.98-3.98v-10.39c0-2.2,1.78-3.98,3.98-3.98h10.39c2.2,0,3.98,1.78,3.98,3.98ZM109.12,235.11c0,2.2-1.78,3.98-3.98,3.98h-10.39c-2.2,0-3.98-1.78-3.98-3.98,0,2.2-1.78,3.98-3.98,3.98h-10.39c-2.2,0-3.98-1.78-3.98-3.98v-10.39c0-2.2,1.78-3.98,3.98-3.98h10.39c2.2,0,3.98,1.78,3.98,3.98,0-2.2,1.78-3.98,3.98-3.98h10.39c2.2,0,3.98,1.78,3.98,3.98v10.39ZM127.46,180.1c0,2.2-1.78,3.98-3.98,3.98,2.2,0,3.98,1.78,3.98,3.98v10.39c0,2.2-1.78,3.98-3.98,3.98h-10.39c-2.2,0-3.98-1.78-3.98-3.98v-10.39c0-2.2,1.78-3.98,3.98-3.98-2.2,0-3.98-1.78-3.98-3.98v-10.39c0-2.2,1.78-3.98,3.98-3.98h10.39c2.2,0,3.98,1.78,3.98,3.98v10.39ZM141.82,92.39h-10.39c-2.2,0-3.98-1.78-3.98-3.98v-10.39c0-2.2,1.78-3.98,3.98-3.98h10.39c2.2,0,3.98,1.78,3.98,3.98,0-2.2,1.78-3.98,3.98-3.98h10.39c2.2,0,3.98,1.78,3.98,3.98v10.39c0,2.2-1.78,3.98-3.98,3.98h-10.39c-2.2,0-3.98-1.78-3.98-3.98,0,2.2-1.78,3.98-3.98,3.98ZM164.14,216.77c0,2.2-1.78,3.98-3.98,3.98,2.2,0,3.98,1.78,3.98,3.98v10.39c0,2.2-1.78,3.98-3.98,3.98h-10.39c-2.2,0-3.98-1.78-3.98-3.98v-10.39c0-2.2,1.78-3.98,3.98-3.98-2.2,0-3.98-1.78-3.98-3.98v-10.39c0-2.2,1.78-3.98,3.98-3.98h10.39c2.2,0,3.98,1.78,3.98,3.98v10.39ZM178.5,129.06h-10.39c-2.2,0-3.98-1.78-3.98-3.98v-10.39c0-2.2,1.78-3.98,3.98-3.98h10.39c2.2,0,3.98,1.78,3.98,3.98v10.39c0,2.2-1.78,3.98-3.98,3.98ZM200.81,161.76c0,2.2-1.78,3.98-3.98,3.98h-10.39c-2.2,0-3.98-1.78-3.98-3.98v-10.39c0-2.2,1.78-3.98,3.98-3.98h10.39c2.2,0,3.98,1.78,3.98,3.98v10.39ZM200.81,106.75v-10.39c0-2.2,1.78-3.98,3.98-3.98h10.39c2.2,0,3.98,1.78,3.98,3.98,0-2.2,1.78-3.98,3.98-3.98h10.39c2.2,0,3.98,1.78,3.98,3.98v10.39c0,2.2-1.78,3.98-3.98,3.98h-10.39c-2.2,0-3.98-1.78-3.98-3.98,0,2.2-1.78,3.98-3.98,3.98h-10.39c-2.2,0-3.98-1.78-3.98-3.98ZM237.48,151.37v10.39c0,2.2-1.78,3.98-3.98,3.98h-10.39c-2.2,0-3.98-1.78-3.98-3.98v-10.39c0-2.2,1.78-3.98,3.98-3.98h10.39c2.2,0,3.98,1.78,3.98,3.98ZM245.77,244.42h-36.94c-1.2,0-1.95-1.3-1.35-2.34l18.47-32c.6-1.04,2.1-1.04,2.7,0l18.47,32c.6,1.04-.15,2.34-1.35,2.34Z" class="cls-2"/>
      <path d="M244.56,256.12H12.36c-6.81,0-12.36-5.54-12.36-12.36V12.36C0,5.54,5.54,0,12.36,0h232.2c6.81,0,12.36,5.54,12.36,12.36v231.4c0,6.81-5.54,12.36-12.36,12.36ZM12.36,1C6.1,1,1,6.1,1,12.36v231.4c0,6.26,5.1,11.36,11.36,11.36h232.2c6.26,0,11.36-5.1,11.36-11.36V12.36c0-6.26-5.1-11.36-11.36-11.36H12.36ZM245.77,244.92h-36.94c-.75,0-1.41-.38-1.78-1.03s-.37-1.42,0-2.06l18.47-32c.37-.65,1.04-1.03,1.78-1.03s1.41.39,1.78,1.03l18.47,32c.37.64.37,1.41,0,2.06-.37.65-1.04,1.03-1.79,1.03ZM227.3,209.81c-.38,0-.73.2-.92.53l-18.47,32c-.19.33-.19.73,0,1.06s.54.53.92.53h36.94c.38,0,.73-.2.92-.53.19-.33.19-.73,0-1.06l-18.47-32c-.19-.33-.54-.53-.92-.53ZM44.37,244.92H13.43c-1.86,0-3.37-1.51-3.37-3.37v-30.94c0-1.86,1.51-3.37,3.37-3.37h30.94c1.86,0,3.37,1.51,3.37,3.37v30.94c0,1.86-1.51,3.37-3.37,3.37ZM13.43,208.25c-1.31,0-2.37,1.06-2.37,2.37v30.94c0,1.31,1.06,2.37,2.37,2.37h30.94c1.31,0,2.37-1.06,2.37-2.37v-30.94c0-1.31-1.06-2.37-2.37-2.37H13.43ZM160.16,239.58h-10.39c-2.47,0-4.48-2.01-4.48-4.48v-10.38c0-1.73.98-3.23,2.42-3.98-1.44-.75-2.42-2.25-2.42-3.98v-10.38c0-2.47,2.01-4.48,4.48-4.48h10.39c2.47,0,4.48,2.01,4.48,4.48v10.38c0,1.73-.98,3.23-2.42,3.98,1.44.75,2.42,2.25,2.42,3.98v10.38c0,2.47-2.01,4.48-4.48,4.48ZM149.77,220.25v1c-1.92,0-3.48,1.56-3.48,3.48v10.38c0,1.92,1.56,3.48,3.48,3.48h10.39c1.92,0,3.48-1.56,3.48-3.48v-10.38c0-1.92-1.56-3.48-3.48-3.48v-1c1.92,0,3.48-1.56,3.48-3.48v-10.38c0-1.92-1.56-3.48-3.48-3.48h-10.39c-1.92,0-3.48,1.56-3.48,3.48v10.38c0,1.92,1.56,3.48,3.48,3.48ZM105.15,239.58h-10.38c-1.73,0-3.23-.98-3.98-2.42-.75,1.44-2.25,2.42-3.98,2.42h-10.39c-2.47,0-4.48-2.01-4.48-4.48v-10.38c0-2.47,2.01-4.48,4.48-4.48h10.39c1.73,0,3.23.98,3.98,2.42.75-1.44,2.25-2.42,3.98-2.42h10.38c2.47,0,4.48,2.01,4.48,4.48v10.38c0,2.47-2.01,4.48-4.48,4.48ZM91.29,235.11c0,1.92,1.56,3.48,3.48,3.48h10.38c1.92,0,3.48-1.56,3.48-3.48v-10.38c0-1.92-1.56-3.48-3.48-3.48h-10.38c-1.92,0-3.48,1.56-3.48,3.48h-1c0-1.92-1.56-3.48-3.48-3.48h-10.39c-1.92,0-3.48,1.56-3.48,3.48v10.38c0,1.92,1.56,3.48,3.48,3.48h10.39c1.92,0,3.48-1.56,3.48-3.48h1ZM123.48,202.91h-10.39c-2.47,0-4.48-2.01-4.48-4.48v-10.39c0-1.73.98-3.23,2.42-3.98-1.44-.75-2.42-2.25-2.42-3.98v-10.39c0-2.47,2.01-4.48,4.48-4.48h10.39c2.47,0,4.48,2.01,4.48,4.48v10.39c0,1.73-.98,3.23-2.42,3.98,1.44.75,2.42,2.25,2.42,3.98v10.39c0,2.47-2.01,4.48-4.48,4.48ZM113.1,183.57v1c-1.92,0-3.48,1.56-3.48,3.48v10.39c0,1.92,1.56,3.48,3.48,3.48h10.39c1.92,0,3.48-1.56,3.48-3.48v-10.39c0-1.92-1.56-3.48-3.48-3.48v-1c1.92,0,3.48-1.56,3.48-3.48v-10.39c0-1.92-1.56-3.48-3.48-3.48h-10.39c-1.92,0-3.48,1.56-3.48,3.48v10.39c0,1.92,1.56,3.48,3.48,3.48ZM50.13,202.91h-10.39c-2.47,0-4.48-2.01-4.48-4.48v-10.39c0-2.47,2.01-4.48,4.48-4.48h10.39c2.47,0,4.48,2.01,4.48,4.48v10.39c0,2.47-2.01,4.48-4.48,4.48ZM39.75,184.57c-1.92,0-3.48,1.56-3.48,3.48v10.39c0,1.92,1.56,3.48,3.48,3.48h10.39c1.92,0,3.48-1.56,3.48-3.48v-10.39c0-1.92-1.56-3.48-3.48-3.48h-10.39ZM86.81,184.57h-10.39c-2.47,0-4.48-2.01-4.48-4.48v-10.39c0-2.47,2.01-4.48,4.48-4.48h10.39c2.47,0,4.48,2.01,4.48,4.48v10.39c0,2.47-2.01,4.48-4.48,4.48ZM76.42,166.23c-1.92,0-3.48,1.56-3.48,3.48v10.39c0,1.92,1.56,3.48,3.48,3.48h10.39c1.92,0,3.48-1.56,3.48-3.48v-10.39c0-1.92-1.56-3.48-3.48-3.48h-10.39ZM233.51,166.23h-10.39c-2.47,0-4.48-2.01-4.48-4.48v-10.39c0-2.47,2.01-4.48,4.48-4.48h10.39c2.47,0,4.48,2.01,4.48,4.48v10.39c0,2.47-2.01,4.48-4.48,4.48ZM223.12,147.9c-1.92,0-3.48,1.56-3.48,3.48v10.39c0,1.92,1.56,3.48,3.48,3.48h10.39c1.92,0,3.48-1.56,3.48-3.48v-10.39c0-1.92-1.56-3.48-3.48-3.48h-10.39ZM196.83,166.23h-10.39c-2.47,0-4.48-2.01-4.48-4.48v-10.39c0-2.47,2.01-4.48,4.48-4.48h10.39c2.47,0,4.48,2.01,4.48,4.48v10.39c0,2.47-2.01,4.48-4.48,4.48ZM186.45,147.9c-1.92,0-3.48,1.56-3.48,3.48v10.39c0,1.92,1.56,3.48,3.48,3.48h10.39c1.92,0,3.48-1.56,3.48-3.48v-10.39c0-1.92-1.56-3.48-3.48-3.48h-10.39ZM86.81,147.9h-10.39c-1.73,0-3.23-.98-3.98-2.42-.75,1.44-2.25,2.42-3.98,2.42h-10.38c-2.47,0-4.48-2.01-4.48-4.48v-10.39c0-2.47,2.01-4.48,4.48-4.48h10.38c1.73,0,3.23.98,3.98,2.42.75-1.44,2.25-2.42,3.98-2.42h10.39c2.47,0,4.48,2.01,4.48,4.48v10.39c0,2.47-2.01,4.48-4.48,4.48ZM72.95,143.42c0,1.92,1.56,3.48,3.48,3.48h10.39c1.92,0,3.48-1.56,3.48-3.48v-10.39c0-1.92-1.56-3.48-3.48-3.48h-10.39c-1.92,0-3.48,1.56-3.48,3.48h-1c0-1.92-1.56-3.48-3.48-3.48h-10.38c-1.92,0-3.48,1.56-3.48,3.48v10.39c0,1.92,1.56,3.48,3.48,3.48h10.38c1.92,0,3.48-1.56,3.48-3.48h1ZM178.5,129.56h-10.38c-2.47,0-4.48-2.01-4.48-4.48v-10.39c0-2.47,2.01-4.48,4.48-4.48h10.38c2.47,0,4.48,2.01,4.48,4.48v10.39c0,2.47-2.01,4.48-4.48,4.48ZM168.11,111.22c-1.92,0-3.48,1.56-3.48,3.48v10.39c0,1.92,1.56,3.48,3.48,3.48h10.38c1.92,0,3.48-1.56,3.48-3.48v-10.39c0-1.92-1.56-3.48-3.48-3.48h-10.38ZM31.8,129.56h-10.38c-2.47,0-4.48-2.01-4.48-4.48v-10.39c0-2.47,2.01-4.48,4.48-4.48h10.38c2.47,0,4.48,2.01,4.48,4.48v10.39c0,2.47-2.01,4.48-4.48,4.48ZM21.41,111.22c-1.92,0-3.48,1.56-3.48,3.48v10.39c0,1.92,1.56,3.48,3.48,3.48h10.38c1.92,0,3.48-1.56,3.48-3.48v-10.39c0-1.92-1.56-3.48-3.48-3.48h-10.38ZM233.51,111.22h-10.39c-1.73,0-3.23-.98-3.98-2.42-.75,1.44-2.25,2.42-3.98,2.42h-10.38c-2.47,0-4.48-2.01-4.48-4.48v-10.39c0-2.47,2.01-4.48,4.48-4.48h10.38c1.73,0,3.23.98,3.98,2.42.75-1.44,2.25-2.42,3.98-2.42h10.39c2.47,0,4.48,2.01,4.48,4.48v10.39c0,2.47-2.01,4.48-4.48,4.48ZM219.65,106.75c0,1.92,1.56,3.48,3.48,3.48h10.39c1.92,0,3.48-1.56,3.48-3.48v-10.39c0-1.92-1.56-3.48-3.48-3.48h-10.39c-1.92,0-3.48,1.56-3.48,3.48h-1c0-1.92-1.56-3.48-3.48-3.48h-10.38c-1.92,0-3.48,1.56-3.48,3.48v10.39c0,1.92,1.56,3.48,3.48,3.48h10.38c1.92,0,3.48-1.56,3.48-3.48h1ZM105.15,111.22h-10.38c-2.47,0-4.48-2.01-4.48-4.48v-10.39c0-1.73.98-3.23,2.42-3.98-1.44-.75-2.42-2.25-2.42-3.98v-10.39c0-2.47,2.01-4.48,4.48-4.48h10.38c2.47,0,4.48,2.01,4.48,4.48v10.39c0,1.73-.98,3.23-2.42,3.98,1.44.75,2.42,2.25,2.42,3.98v10.39c0,2.47-2.01,4.48-4.48,4.48ZM94.76,91.89v1c-1.92,0-3.48,1.56-3.48,3.48v10.39c0,1.92,1.56,3.48,3.48,3.48h10.38c1.92,0,3.48-1.56,3.48-3.48v-10.39c0-1.92-1.56-3.48-3.48-3.48v-1c1.92,0,3.48-1.56,3.48-3.48v-10.39c0-1.92-1.56-3.48-3.48-3.48h-10.38c-1.92,0-3.48,1.56-3.48,3.48v10.39c0,1.92,1.56,3.48,3.48,3.48ZM160.16,92.89h-10.39c-1.73,0-3.23-.98-3.98-2.42-.75,1.44-2.25,2.42-3.98,2.42h-10.38c-2.47,0-4.48-2.01-4.48-4.48v-10.39c0-2.47,2.01-4.48,4.48-4.48h10.38c1.73,0,3.23.98,3.98,2.42.75-1.44,2.25-2.42,3.98-2.42h10.39c2.47,0,4.48,2.01,4.48,4.48v10.39c0,2.47-2.01,4.48-4.48,4.48ZM146.3,88.41c0,1.92,1.56,3.48,3.48,3.48h10.39c1.92,0,3.48-1.56,3.48-3.48v-10.39c0-1.92-1.56-3.48-3.48-3.48h-10.39c-1.92,0-3.48,1.56-3.48,3.48h-1c0-1.92-1.56-3.48-3.48-3.48h-10.38c-1.92,0-3.48,1.56-3.48,3.48v10.39c0,1.92,1.56,3.48,3.48,3.48h10.38c1.92,0,3.48-1.56,3.48-3.48h1ZM68.47,92.89h-10.38c-1.73,0-3.23-.98-3.98-2.42-.75,1.44-2.25,2.42-3.98,2.42h-10.39c-2.47,0-4.48-2.01-4.48-4.48v-10.39c0-2.47,2.01-4.48,4.48-4.48h10.39c1.73,0,3.23.98,3.98,2.42.75-1.44,2.25-2.42,3.98-2.42h10.38c2.47,0,4.48,2.01,4.48,4.48v10.39c0,2.47-2.01,4.48-4.48,4.48ZM54.61,88.41c0,1.92,1.56,3.48,3.48,3.48h10.38c1.92,0,3.48-1.56,3.48-3.48v-10.39c0-1.92-1.56-3.48-3.48-3.48h-10.38c-1.92,0-3.48,1.56-3.48,3.48h-1c0-1.92-1.56-3.48-3.48-3.48h-10.39c-1.92,0-3.48,1.56-3.48,3.48v10.39c0,1.92,1.56,3.48,3.48,3.48h10.39c1.92,0,3.48-1.56,3.48-3.48h1ZM215.17,74.55h-10.38c-2.47,0-4.48-2.01-4.48-4.48v-10.39c0-2.47,2.01-4.48,4.48-4.48h10.38c2.47,0,4.48,2.01,4.48,4.48v10.39c0,2.47-2.01,4.48-4.48,4.48ZM204.79,56.21c-1.92,0-3.48,1.56-3.48,3.48v10.39c0,1.92,1.56,3.48,3.48,3.48h10.38c1.92,0,3.48-1.56,3.48-3.48v-10.39c0-1.92-1.56-3.48-3.48-3.48h-10.38ZM105.15,56.21h-10.38c-2.47,0-4.48-2.01-4.48-4.48v-10.39c0-2.47,2.01-4.48,4.48-4.48h10.38c2.47,0,4.48,2.01,4.48,4.48v10.39c0,2.47-2.01,4.48-4.48,4.48ZM94.76,37.87c-1.92,0-3.48,1.56-3.48,3.48v10.39c0,1.92,1.56,3.48,3.48,3.48h10.38c1.92,0,3.48-1.56,3.48-3.48v-10.39c0-1.92-1.56-3.48-3.48-3.48h-10.38ZM29.51,46.04c-10.39,0-18.84-8.45-18.84-18.84S19.13,8.37,29.51,8.37s18.84,8.45,18.84,18.84-8.45,18.84-18.84,18.84ZM29.51,9.37c-9.84,0-17.84,8-17.84,17.84s8,17.84,17.84,17.84,17.84-8,17.84-17.84-8-17.84-17.84-17.84ZM178.5,37.87h-10.38c-2.47,0-4.48-2.01-4.48-4.48v-10.39c0-2.47,2.01-4.48,4.48-4.48h10.38c2.47,0,4.48,2.01,4.48,4.48v10.39c0,2.47-2.01,4.48-4.48,4.48ZM168.11,19.54c-1.92,0-3.48,1.56-3.48,3.48v10.39c0,1.92,1.56,3.48,3.48,3.48h10.38c1.92,0,3.48-1.56,3.48-3.48v-10.39c0-1.92-1.56-3.48-3.48-3.48h-10.38Z" class="cls-1"/>
    </g>
  </g>
</svg>