<svg xmlns="http://www.w3.org/2000/svg" viewBox="0 0 256.92 256.12" data-name="Слой 2" id="_Слой_2">
  <defs>
    <style>
      .cls-1 {
        fill: #ccc;
      }

      .cls-1, .cls-2 {
        stroke-width: 0px;
      }

      .cls-2 {
        fill: #fbfbfb;
      }
    </style>
  </defs>
  <g data-name="Слой 1" id="_Слой_1-2">
    <g>
      <path d="M244.56.5H12.36C5.81.5.5,5.81.5,12.36v231.4c0,6.55,5.31,11.86,11.86,11.86h232.2c6.55,0,11.86-5.31,11.86-11.86V12.36c0-6.55-5.31-11.86-11.86-11.86ZM219.15,76.22c0-2.2,1.78-3.98,3.98-3.98h10.38c2.2,0,3.98,1.78,3.98,3.98v10.38c0,2.2-1.78,3.98-3.98,3.98h-10.38c-2.2,0-3.98-1.78-3.98-3.98v-10.38ZM182.47,57.88c0-2.2,1.78-3.98,3.98-3.98h10.38c2.2,0,3.98,1.78,3.98,3.98v10.38c0,2.2-1.78,3.98-3.98,3.98h-10.38c-2.2,0-3.98-1.78-3.98-3.98v-10.38ZM168.11,90.58h10.39c2.2,0,3.98,1.78,3.98,3.98,0-2.2,1.78-3.98,3.98-3.98h10.38c2.2,0,3.98,1.78,3.98,3.98v10.38c0,2.2-1.78,3.98-3.98,3.98h-10.38c-2.2,0-3.98-1.78-3.98-3.98,0,2.2-1.78,3.98-3.98,3.98h-10.39c-2.2,0-3.98-1.78-3.98-3.98v-10.38c0-2.2,1.78-3.98,3.98-3.98ZM145.8,39.55c0-2.2,1.78-3.98,3.98-3.98-2.2,0-3.98-1.78-3.98-3.98v-10.39c0-2.2,1.78-3.98,3.98-3.98h10.39c2.2,0,3.98,1.78,3.98,3.98v10.39c0,2.2-1.78,3.98-3.98,3.98,2.2,0,3.98,1.78,3.98,3.98v10.38c0,2.2-1.78,3.98-3.98,3.98h-10.39c-2.2,0-3.98-1.78-3.98-3.98v-10.38ZM109.12,39.55c0-2.2,1.78-3.98,3.98-3.98h10.38c2.2,0,3.98,1.78,3.98,3.98v10.38c0,2.2-1.78,3.98-3.98,3.98h-10.38c-2.2,0-3.98-1.78-3.98-3.98v-10.38ZM54.11,57.88c0-2.2,1.78-3.98,3.98-3.98h10.39c2.2,0,3.98,1.78,3.98,3.98v10.38c0,2.2-1.78,3.98-3.98,3.98h-10.39c-2.2,0-3.98-1.78-3.98-3.98v-10.38ZM54.11,112.89c0-2.2,1.78-3.98,3.98-3.98h10.39c2.2,0,3.98,1.78,3.98,3.98v10.38c0,2.2-1.78,3.98-3.98,3.98h-10.39c-2.2,0-3.98-1.78-3.98-3.98v-10.38ZM47.24,241.55c0,1.58-1.28,2.87-2.87,2.87H13.43c-1.58,0-2.87-1.28-2.87-2.87v-30.94c0-1.58,1.28-2.87,2.87-2.87h30.94c1.58,0,2.87,1.28,2.87,2.87v30.94ZM17.44,141.62v-10.39c0-2.2,1.78-3.98,3.98-3.98h10.38c2.2,0,3.98,1.78,3.98,3.98v10.39c0,2.2-1.78,3.98-3.98,3.98,2.2,0,3.98,1.78,3.98,3.98v10.38c0,2.2-1.78,3.98-3.98,3.98h-10.38c-2.2,0-3.98-1.78-3.98-3.98v-10.38c0-2.2,1.78-3.98,3.98-3.98-2.2,0-3.98-1.78-3.98-3.98ZM17.44,104.94v-10.38c0-2.2,1.78-3.98,3.98-3.98h10.38c2.2,0,3.98,1.78,3.98,3.98v10.38c0,2.2-1.78,3.98-3.98,3.98h-10.38c-2.2,0-3.98-1.78-3.98-3.98ZM29.51,45.54c-10.13,0-18.34-8.21-18.34-18.34S19.39,8.87,29.51,8.87s18.34,8.21,18.34,18.34-8.21,18.34-18.34,18.34ZM72.45,196.63c0,2.2-1.78,3.98-3.98,3.98h-10.39c-2.2,0-3.98-1.78-3.98-3.98v-10.38c0-2.2,1.78-3.98,3.98-3.98h10.39c2.2,0,3.98,1.78,3.98,3.98v10.38ZM90.79,159.95c0,2.2-1.78,3.98-3.98,3.98h-10.38c-2.2,0-3.98-1.78-3.98-3.98v-10.38c0-2.2,1.78-3.98,3.98-3.98h10.38c2.2,0,3.98,1.78,3.98,3.98v10.38ZM90.79,31.59c0,2.2-1.78,3.98-3.98,3.98h-10.38c-2.2,0-3.98-1.78-3.98-3.98v-10.39c0-2.2,1.78-3.98,3.98-3.98h10.38c2.2,0,3.98,1.78,3.98,3.98v10.39ZM127.46,233.3c0,2.2-1.78,3.98-3.98,3.98h-10.38c-2.2,0-3.98-1.78-3.98-3.98v-10.39c0-2.2,1.78-3.98,3.98-3.98h10.38c2.2,0,3.98,1.78,3.98,3.98v10.39ZM127.46,159.95c0,2.2-1.78,3.98-3.98,3.98h-10.38c-2.2,0-3.98-1.78-3.98-3.98v-10.38c0-2.2,1.78-3.98,3.98-3.98h10.38c2.2,0,3.98,1.78,3.98,3.98v10.38ZM141.82,108.92h-10.38c-2.2,0-3.98-1.78-3.98-3.98,0,2.2-1.78,3.98-3.98,3.98h-10.38c-2.2,0-3.98-1.78-3.98-3.98v-10.38c0-2.2,1.78-3.98,3.98-3.98h10.38c2.2,0,3.98,1.78,3.98,3.98,0-2.2,1.78-3.98,3.98-3.98h10.38c2.2,0,3.98,1.78,3.98,3.98v10.38c0,2.2-1.78,3.98-3.98,3.98ZM164.14,178.29c0,2.2-1.78,3.98-3.98,3.98h-10.39c-2.2,0-3.98-1.78-3.98-3.98v-10.38c0-2.2,1.78-3.98,3.98-3.98h10.39c2.2,0,3.98,1.78,3.98,3.98v10.38ZM178.5,145.59h-10.39c-2.2,0-3.98-1.78-3.98-3.98,0,2.2-1.78,3.98-3.98,3.98h-10.39c-2.2,0-3.98-1.78-3.98-3.98v-10.39c0-2.2,1.78-3.98,3.98-3.98h10.39c2.2,0,3.98,1.78,3.98,3.98,0-2.2,1.78-3.98,3.98-3.98h10.39c2.2,0,3.98,1.78,3.98,3.98v10.39c0,2.2-1.78,3.98-3.98,3.98ZM200.81,196.63c0,2.2-1.78,3.98-3.98,3.98h-10.38c-2.2,0-3.98-1.78-3.98-3.98v-10.38c0-2.2,1.78-3.98,3.98-3.98h10.38c2.2,0,3.98,1.78,3.98,3.98v10.38ZM200.81,159.95v-10.38c0-2.2,1.78-3.98,3.98-3.98-2.2,0-3.98-1.78-3.98-3.98v-10.39c0-2.2,1.78-3.98,3.98-3.98h10.38c2.2,0,3.98,1.78,3.98,3.98v10.39c0,2.2-1.78,3.98-3.98,3.98,2.2,0,3.98,1.78,3.98,3.98v10.38c0,2.2-1.78,3.98-3.98,3.98h-10.38c-2.2,0-3.98-1.78-3.98-3.98ZM245.77,244.42h-36.94c-1.2,0-1.95-1.3-1.35-2.34l18.47-32c.6-1.04,2.1-1.04,2.7,0l18.47,32c.6,1.04-.15,2.34-1.35,2.34Z" class="cls-2"/>
      <path d="M244.56,256.12H12.36c-6.81,0-12.36-5.54-12.36-12.36V12.36C0,5.54,5.54,0,12.36,0h232.2c6.81,0,12.36,5.54,12.36,12.36v231.4c0,6.81-5.54,12.36-12.36,12.36ZM12.36,1C6.1,1,1,6.1,1,12.36v231.4c0,6.26,5.1,11.36,11.36,11.36h232.2c6.26,0,11.36-5.1,11.36-11.36V12.36c0-6.26-5.1-11.36-11.36-11.36H12.36ZM245.77,244.92h-36.94c-.75,0-1.41-.39-1.78-1.03s-.37-1.42,0-2.06l18.47-32c.37-.65,1.04-1.03,1.78-1.03s1.41.38,1.78,1.03l18.47,32c.37.64.37,1.41,0,2.06-.37.65-1.04,1.03-1.79,1.03ZM227.3,209.81c-.38,0-.73.2-.92.53l-18.47,32c-.19.33-.19.73,0,1.06.19.33.54.53.92.53h36.94c.38,0,.73-.2.92-.53.19-.33.19-.73,0-1.06l-18.47-32c-.19-.33-.54-.53-.92-.53ZM44.37,244.92H13.43c-1.86,0-3.37-1.51-3.37-3.37v-30.94c0-1.86,1.51-3.37,3.37-3.37h30.94c1.86,0,3.37,1.51,3.37,3.37v30.94c0,1.86-1.51,3.37-3.37,3.37ZM13.43,208.25c-1.31,0-2.37,1.06-2.37,2.37v30.94c0,1.31,1.06,2.37,2.37,2.37h30.94c1.31,0,2.37-1.06,2.37-2.37v-30.94c0-1.31-1.06-2.37-2.37-2.37H13.43ZM123.48,237.78h-10.38c-2.47,0-4.48-2.01-4.48-4.48v-10.39c0-2.47,2.01-4.48,4.48-4.48h10.38c2.47,0,4.48,2.01,4.48,4.48v10.39c0,2.47-2.01,4.48-4.48,4.48ZM113.1,219.44c-1.92,0-3.48,1.56-3.48,3.48v10.39c0,1.92,1.56,3.48,3.48,3.48h10.38c1.92,0,3.48-1.56,3.48-3.48v-10.39c0-1.92-1.56-3.48-3.48-3.48h-10.38ZM196.83,201.11h-10.38c-2.47,0-4.48-2.01-4.48-4.48v-10.38c0-2.47,2.01-4.48,4.48-4.48h10.38c2.47,0,4.48,2.01,4.48,4.48v10.38c0,2.47-2.01,4.48-4.48,4.48ZM186.45,182.77c-1.92,0-3.48,1.56-3.48,3.48v10.38c0,1.92,1.56,3.48,3.48,3.48h10.38c1.92,0,3.48-1.56,3.48-3.48v-10.38c0-1.92-1.56-3.48-3.48-3.48h-10.38ZM68.47,201.11h-10.38c-2.47,0-4.48-2.01-4.48-4.48v-10.38c0-2.47,2.01-4.48,4.48-4.48h10.38c2.47,0,4.48,2.01,4.48,4.48v10.38c0,2.47-2.01,4.48-4.48,4.48ZM58.09,182.77c-1.92,0-3.48,1.56-3.48,3.48v10.38c0,1.92,1.56,3.48,3.48,3.48h10.38c1.92,0,3.48-1.56,3.48-3.48v-10.38c0-1.92-1.56-3.48-3.48-3.48h-10.38ZM160.16,182.77h-10.38c-2.47,0-4.48-2.01-4.48-4.48v-10.38c0-2.47,2.01-4.48,4.48-4.48h10.38c2.47,0,4.48,2.01,4.48,4.48v10.38c0,2.47-2.01,4.48-4.48,4.48ZM149.77,164.43c-1.92,0-3.48,1.56-3.48,3.48v10.38c0,1.92,1.56,3.48,3.48,3.48h10.38c1.92,0,3.48-1.56,3.48-3.48v-10.38c0-1.92-1.56-3.48-3.48-3.48h-10.38ZM215.17,164.43h-10.38c-2.47,0-4.48-2.01-4.48-4.48v-10.38c0-1.73.98-3.23,2.42-3.98-1.44-.75-2.42-2.25-2.42-3.98v-10.38c0-2.47,2.01-4.48,4.48-4.48h10.38c2.47,0,4.48,2.01,4.48,4.48v10.38c0,1.73-.98,3.23-2.42,3.98,1.44.75,2.42,2.25,2.42,3.98v10.38c0,2.47-2.01,4.48-4.48,4.48ZM204.79,145.09v1c-1.92,0-3.48,1.56-3.48,3.48v10.38c0,1.92,1.56,3.48,3.48,3.48h10.38c1.92,0,3.48-1.56,3.48-3.48v-10.38c0-1.92-1.56-3.48-3.48-3.48v-1c1.92,0,3.48-1.56,3.48-3.48v-10.38c0-1.92-1.56-3.48-3.48-3.48h-10.38c-1.92,0-3.48,1.56-3.48,3.48v10.38c0,1.92,1.56,3.48,3.48,3.48ZM123.48,164.43h-10.38c-2.47,0-4.48-2.01-4.48-4.48v-10.38c0-2.47,2.01-4.48,4.48-4.48h10.38c2.47,0,4.48,2.01,4.48,4.48v10.38c0,2.47-2.01,4.48-4.48,4.48ZM113.1,146.09c-1.92,0-3.48,1.56-3.48,3.48v10.38c0,1.92,1.56,3.48,3.48,3.48h10.38c1.92,0,3.48-1.56,3.48-3.48v-10.38c0-1.92-1.56-3.48-3.48-3.48h-10.38ZM86.81,164.43h-10.38c-2.47,0-4.48-2.01-4.48-4.48v-10.38c0-2.47,2.01-4.48,4.48-4.48h10.38c2.47,0,4.48,2.01,4.48,4.48v10.38c0,2.47-2.01,4.48-4.48,4.48ZM76.42,146.09c-1.92,0-3.48,1.56-3.48,3.48v10.38c0,1.92,1.56,3.48,3.48,3.48h10.38c1.92,0,3.48-1.56,3.48-3.48v-10.38c0-1.92-1.56-3.48-3.48-3.48h-10.38ZM31.8,164.43h-10.38c-2.47,0-4.48-2.01-4.48-4.48v-10.38c0-1.73.98-3.23,2.42-3.98-1.44-.75-2.42-2.25-2.42-3.98v-10.38c0-2.47,2.01-4.48,4.48-4.48h10.38c2.47,0,4.48,2.01,4.48,4.48v10.38c0,1.73-.98,3.23-2.42,3.98,1.44.75,2.42,2.25,2.42,3.98v10.38c0,2.47-2.01,4.48-4.48,4.48ZM21.41,145.09v1c-1.92,0-3.48,1.56-3.48,3.48v10.38c0,1.92,1.56,3.48,3.48,3.48h10.38c1.92,0,3.48-1.56,3.48-3.48v-10.38c0-1.92-1.56-3.48-3.48-3.48v-1c1.92,0,3.48-1.56,3.48-3.48v-10.38c0-1.92-1.56-3.48-3.48-3.48h-10.38c-1.92,0-3.48,1.56-3.48,3.48v10.38c0,1.92,1.56,3.48,3.48,3.48ZM178.5,146.09h-10.38c-1.73,0-3.23-.98-3.98-2.42-.75,1.44-2.25,2.42-3.98,2.42h-10.38c-2.47,0-4.48-2.01-4.48-4.48v-10.38c0-2.47,2.01-4.48,4.48-4.48h10.38c1.73,0,3.23.98,3.98,2.42.75-1.44,2.25-2.42,3.98-2.42h10.38c2.47,0,4.48,2.01,4.48,4.48v10.38c0,2.47-2.01,4.48-4.48,4.48ZM164.63,141.62c0,1.92,1.56,3.48,3.48,3.48h10.38c1.92,0,3.48-1.56,3.48-3.48v-10.38c0-1.92-1.56-3.48-3.48-3.48h-10.38c-1.92,0-3.48,1.56-3.48,3.48h-1c0-1.92-1.56-3.48-3.48-3.48h-10.38c-1.92,0-3.48,1.56-3.48,3.48v10.38c0,1.92,1.56,3.48,3.48,3.48h10.38c1.92,0,3.48-1.56,3.48-3.48h1ZM68.47,127.76h-10.38c-2.47,0-4.48-2.01-4.48-4.48v-10.38c0-2.47,2.01-4.48,4.48-4.48h10.38c2.47,0,4.48,2.01,4.48,4.48v10.38c0,2.47-2.01,4.48-4.48,4.48ZM58.09,109.42c-1.92,0-3.48,1.56-3.48,3.48v10.38c0,1.92,1.56,3.48,3.48,3.48h10.38c1.92,0,3.48-1.56,3.48-3.48v-10.38c0-1.92-1.56-3.48-3.48-3.48h-10.38ZM196.83,109.42h-10.38c-1.73,0-3.23-.98-3.98-2.42-.75,1.44-2.25,2.42-3.98,2.42h-10.38c-2.47,0-4.48-2.01-4.48-4.48v-10.38c0-2.47,2.01-4.48,4.48-4.48h10.38c1.73,0,3.23.98,3.98,2.42.75-1.44,2.25-2.42,3.98-2.42h10.38c2.47,0,4.48,2.01,4.48,4.48v10.38c0,2.47-2.01,4.48-4.48,4.48ZM182.97,104.94c0,1.92,1.56,3.48,3.48,3.48h10.38c1.92,0,3.48-1.56,3.48-3.48v-10.38c0-1.92-1.56-3.48-3.48-3.48h-10.38c-1.92,0-3.48,1.56-3.48,3.48h-1c0-1.92-1.56-3.48-3.48-3.48h-10.38c-1.92,0-3.48,1.56-3.48,3.48v10.38c0,1.92,1.56,3.48,3.48,3.48h10.38c1.92,0,3.48-1.56,3.48-3.48h1ZM141.82,109.42h-10.38c-1.73,0-3.23-.98-3.98-2.42-.75,1.44-2.25,2.42-3.98,2.42h-10.38c-2.47,0-4.48-2.01-4.48-4.48v-10.38c0-2.47,2.01-4.48,4.48-4.48h10.38c1.73,0,3.23.98,3.98,2.42.75-1.44,2.25-2.42,3.98-2.42h10.38c2.47,0,4.48,2.01,4.48,4.48v10.38c0,2.47-2.01,4.48-4.48,4.48ZM127.96,104.94c0,1.92,1.56,3.48,3.48,3.48h10.38c1.92,0,3.48-1.56,3.48-3.48v-10.38c0-1.92-1.56-3.48-3.48-3.48h-10.38c-1.92,0-3.48,1.56-3.48,3.48h-1c0-1.92-1.56-3.48-3.48-3.48h-10.38c-1.92,0-3.48,1.56-3.48,3.48v10.38c0,1.92,1.56,3.48,3.48,3.48h10.38c1.92,0,3.48-1.56,3.48-3.48h1ZM31.8,109.42h-10.38c-2.47,0-4.48-2.01-4.48-4.48v-10.38c0-2.47,2.01-4.48,4.48-4.48h10.38c2.47,0,4.48,2.01,4.48,4.48v10.38c0,2.47-2.01,4.48-4.48,4.48ZM21.41,91.08c-1.92,0-3.48,1.56-3.48,3.48v10.38c0,1.92,1.56,3.48,3.48,3.48h10.38c1.92,0,3.48-1.56,3.48-3.48v-10.38c0-1.92-1.56-3.48-3.48-3.48h-10.38ZM233.51,91.08h-10.38c-2.47,0-4.48-2.01-4.48-4.48v-10.38c0-2.47,2.01-4.48,4.48-4.48h10.38c2.47,0,4.48,2.01,4.48,4.48v10.38c0,2.47-2.01,4.48-4.48,4.48ZM223.12,72.74c-1.92,0-3.48,1.56-3.48,3.48v10.38c0,1.92,1.56,3.48,3.48,3.48h10.38c1.92,0,3.48-1.56,3.48-3.48v-10.38c0-1.92-1.56-3.48-3.48-3.48h-10.38ZM196.83,72.74h-10.38c-2.47,0-4.48-2.01-4.48-4.48v-10.38c0-2.47,2.01-4.48,4.48-4.48h10.38c2.47,0,4.48,2.01,4.48,4.48v10.38c0,2.47-2.01,4.48-4.48,4.48ZM186.45,54.41c-1.92,0-3.48,1.56-3.48,3.48v10.38c0,1.92,1.56,3.48,3.48,3.48h10.38c1.92,0,3.48-1.56,3.48-3.48v-10.38c0-1.92-1.56-3.48-3.48-3.48h-10.38ZM68.47,72.74h-10.38c-2.47,0-4.48-2.01-4.48-4.48v-10.38c0-2.47,2.01-4.48,4.48-4.48h10.38c2.47,0,4.48,2.01,4.48,4.48v10.38c0,2.47-2.01,4.48-4.48,4.48ZM58.09,54.41c-1.92,0-3.48,1.56-3.48,3.48v10.38c0,1.92,1.56,3.48,3.48,3.48h10.38c1.92,0,3.48-1.56,3.48-3.48v-10.38c0-1.92-1.56-3.48-3.48-3.48h-10.38ZM160.16,54.41h-10.38c-2.47,0-4.48-2.01-4.48-4.48v-10.38c0-1.73.98-3.23,2.42-3.98-1.44-.75-2.42-2.25-2.42-3.98v-10.38c0-2.47,2.01-4.48,4.48-4.48h10.38c2.47,0,4.48,2.01,4.48,4.48v10.38c0,1.73-.98,3.23-2.42,3.98,1.44.75,2.42,2.25,2.42,3.98v10.38c0,2.47-2.01,4.48-4.48,4.48ZM149.77,35.07v1c-1.92,0-3.48,1.56-3.48,3.48v10.38c0,1.92,1.56,3.48,3.48,3.48h10.38c1.92,0,3.48-1.56,3.48-3.48v-10.38c0-1.92-1.56-3.48-3.48-3.48v-1c1.92,0,3.48-1.56,3.48-3.48v-10.38c0-1.92-1.56-3.48-3.48-3.48h-10.38c-1.92,0-3.48,1.56-3.48,3.48v10.38c0,1.92,1.56,3.48,3.48,3.48ZM123.48,54.41h-10.38c-2.47,0-4.48-2.01-4.48-4.48v-10.38c0-2.47,2.01-4.48,4.48-4.48h10.38c2.47,0,4.48,2.01,4.48,4.48v10.38c0,2.47-2.01,4.48-4.48,4.48ZM113.1,36.07c-1.92,0-3.48,1.56-3.48,3.48v10.38c0,1.92,1.56,3.48,3.48,3.48h10.38c1.92,0,3.48-1.56,3.48-3.48v-10.38c0-1.92-1.56-3.48-3.48-3.48h-10.38ZM29.51,46.04c-10.39,0-18.84-8.45-18.84-18.84S19.13,8.37,29.51,8.37s18.84,8.45,18.84,18.84-8.45,18.84-18.84,18.84ZM29.51,9.37c-9.84,0-17.84,8-17.84,17.84s8,17.84,17.84,17.84,17.84-8,17.84-17.84-8-17.84-17.84-17.84ZM86.81,36.07h-10.38c-2.47,0-4.48-2.01-4.48-4.48v-10.38c0-2.47,2.01-4.48,4.48-4.48h10.38c2.47,0,4.48,2.01,4.48,4.48v10.38c0,2.47-2.01,4.48-4.48,4.48ZM76.42,17.73c-1.92,0-3.48,1.56-3.48,3.48v10.38c0,1.92,1.56,3.48,3.48,3.48h10.38c1.92,0,3.48-1.56,3.48-3.48v-10.38c0-1.92-1.56-3.48-3.48-3.48h-10.38Z" class="cls-1"/>
    </g>
  </g>
</svg>