<svg xmlns="http://www.w3.org/2000/svg" viewBox="0 0 256.92 256.12" data-name="Слой 2" id="_Слой_2">
  <defs>
    <style>
      .cls-1 {
        fill: #fbfbfb;
        stroke: #ccc;
        stroke-miterlimit: 10;
      }
    </style>
  </defs>
  <g data-name="Слой 1" id="_Слой_1-2">
    <path d="M244.56.5H12.36C5.81.5.5,5.81.5,12.36v231.4c0,6.55,5.31,11.86,11.86,11.86h232.2c6.55,0,11.86-5.31,11.86-11.86V12.36c0-6.55-5.31-11.86-11.86-11.86ZM224.12,74.05h10.38c2.2,0,3.98,1.78,3.98,3.98v10.38c0,2.2-1.78,3.98-3.98,3.98h-10.38c-2.2,0-3.98-1.78-3.98-3.98v-10.38c0-2.2,1.78-3.98,3.98-3.98ZM201.81,41.35c0-2.2,1.78-3.98,3.98-3.98h10.38c2.2,0,3.98,1.78,3.98,3.98v10.38c0,2.2-1.78,3.98-3.98,3.98h-10.38c-2.2,0-3.98-1.78-3.98-3.98v-10.38ZM146.8,78.02c0-2.2,1.78-3.98,3.98-3.98h10.38c2.2,0,3.98,1.78,3.98,3.98v10.38c0,2.2-1.78,3.98-3.98,3.98h-10.38c-2.2,0-3.98-1.78-3.98-3.98v-10.38ZM29.51,8.87c10.13,0,18.34,8.21,18.34,18.34s-8.21,18.34-18.34,18.34-18.34-8.21-18.34-18.34S19.39,8.87,29.51,8.87ZM47.24,241.55c0,1.58-1.28,2.87-2.87,2.87H13.43c-1.58,0-2.87-1.28-2.87-2.87v-30.94c0-1.58,1.28-2.87,2.87-2.87h30.94c1.58,0,2.87,1.28,2.87,2.87v30.94ZM55.11,180.09c0,2.2-1.78,3.98-3.98,3.98,2.2,0,3.98,1.78,3.98,3.98v10.38c0,2.2-1.78,3.98-3.98,3.98h-10.39c-2.2,0-3.98-1.78-3.98-3.98v-10.38c0-2.2,1.78-3.98,3.98-3.98-2.2,0-3.98-1.78-3.98-3.98v-10.38c0-2.2,1.78-3.98,3.98-3.98h10.39c2.2,0,3.98,1.78,3.98,3.98v10.38ZM55.11,106.75c0,2.2-1.78,3.98-3.98,3.98h-10.39c-2.2,0-3.98-1.78-3.98-3.98v-10.38c0-2.2,1.78-3.98,3.98-3.98h10.39c2.2,0,3.98,1.78,3.98,3.98v10.38ZM91.79,235.11c0,2.2-1.78,3.98-3.98,3.98h-10.39c-2.2,0-3.98-1.78-3.98-3.98v-10.38c0-2.2,1.78-3.98,3.98-3.98h10.39c2.2,0,3.98,1.78,3.98,3.98v10.38ZM91.79,161.76c0,2.2-1.78,3.98-3.98,3.98,2.2,0,3.98,1.78,3.98,3.98v10.38c0,2.2-1.78,3.98-3.98,3.98h-10.39c-2.2,0-3.98-1.78-3.98-3.98v-10.38c0-2.2,1.78-3.98,3.98-3.98-2.2,0-3.98-1.78-3.98-3.98v-10.38c0-2.2,1.78-3.98,3.98-3.98h10.39c2.2,0,3.98,1.78,3.98,3.98v10.38ZM91.79,70.07c0,2.2-1.78,3.98-3.98,3.98,2.2,0,3.98,1.78,3.98,3.98v10.38c0,2.2-1.78,3.98-3.98,3.98h-10.39c-2.2,0-3.98-1.78-3.98-3.98v-10.38c0-2.2,1.78-3.98,3.98-3.98-2.2,0-3.98-1.78-3.98-3.98v-10.38c0-2.2,1.78-3.98,3.98-3.98h10.39c2.2,0,3.98,1.78,3.98,3.98v10.38ZM91.79,33.4c0,2.2-1.78,3.98-3.98,3.98h-10.39c-2.2,0-3.98-1.78-3.98-3.98v-10.38c0-2.2,1.78-3.98,3.98-3.98h10.39c2.2,0,3.98,1.78,3.98,3.98v10.38ZM124.48,129.06h-10.39c-2.2,0-3.98-1.78-3.98-3.98v-10.38c0-2.2,1.78-3.98,3.98-3.98h10.39c2.2,0,3.98,1.78,3.98,3.98,0-2.2,1.78-3.98,3.98-3.98h10.38c2.2,0,3.98,1.78,3.98,3.98v10.38c0,2.2-1.78,3.98-3.98,3.98h-10.38c-2.2,0-3.98-1.78-3.98-3.98,0,2.2-1.78,3.98-3.98,3.98ZM146.8,151.37v10.38c0,2.2-1.78,3.98-3.98,3.98h-10.38c-2.2,0-3.98-1.78-3.98-3.98v-10.38c0-2.2,1.78-3.98,3.98-3.98h10.38c2.2,0,3.98,1.78,3.98,3.98ZM142.82,202.41h-10.38c-2.2,0-3.98-1.78-3.98-3.98v-10.38c0-2.2,1.78-3.98,3.98-3.98h10.38c2.2,0,3.98,1.78,3.98,3.98v10.38c0,2.2-1.78,3.98-3.98,3.98ZM183.47,235.11c0,2.2-1.78,3.98-3.98,3.98h-10.38c-2.2,0-3.98-1.78-3.98-3.98,0,2.2-1.78,3.98-3.98,3.98h-10.38c-2.2,0-3.98-1.78-3.98-3.98v-10.38c0-2.2,1.78-3.98,3.98-3.98h10.38c2.2,0,3.98,1.78,3.98,3.98,0-2.2,1.78-3.98,3.98-3.98h10.38c2.2,0,3.98,1.78,3.98,3.98v10.38ZM183.47,180.09c0,2.2-1.78,3.98-3.98,3.98h-10.38c-2.2,0-3.98-1.78-3.98-3.98v-10.38c0-2.2,1.78-3.98,3.98-3.98h10.38c2.2,0,3.98,1.78,3.98,3.98v10.38ZM183.47,143.42c0,2.2-1.78,3.98-3.98,3.98h-10.38c-2.2,0-3.98-1.78-3.98-3.98v-10.38c0-2.2,1.78-3.98,3.98-3.98h10.38c2.2,0,3.98,1.78,3.98,3.98v10.38ZM183.47,51.73c0,2.2-1.78,3.98-3.98,3.98h-10.38c-2.2,0-3.98-1.78-3.98-3.98,0,2.2-1.78,3.98-3.98,3.98h-10.38c-2.2,0-3.98-1.78-3.98-3.98v-10.38c0-2.2,1.78-3.98,3.98-3.98h10.38c2.2,0,3.98,1.78,3.98,3.98,0-2.2,1.78-3.98,3.98-3.98h10.38c2.2,0,3.98,1.78,3.98,3.98v10.38ZM201.81,125.08v-10.38c0-2.2,1.78-3.98,3.98-3.98h10.38c2.2,0,3.98,1.78,3.98,3.98,0-2.2,1.78-3.98,3.98-3.98h10.38c2.2,0,3.98,1.78,3.98,3.98v10.38c0,2.2-1.78,3.98-3.98,3.98h-10.38c-2.2,0-3.98-1.78-3.98-3.98,0,2.2-1.78,3.98-3.98,3.98h-10.38c-2.2,0-3.98-1.78-3.98-3.98ZM238.48,169.71v10.38c0,2.2-1.78,3.98-3.98,3.98h-10.38c-2.2,0-3.98-1.78-3.98-3.98v-10.38c0-2.2,1.78-3.98,3.98-3.98h10.38c2.2,0,3.98,1.78,3.98,3.98ZM245.77,244.42h-36.94c-1.2,0-1.95-1.3-1.35-2.34l18.47-32c.6-1.04,2.1-1.04,2.7,0l18.47,32c.6,1.04-.15,2.34-1.35,2.34Z" class="cls-1"/>
  </g>
</svg>