<svg xmlns="http://www.w3.org/2000/svg" viewBox="0 0 256.92 256.12" data-name="Слой 2" id="_Слой_2">
  <defs>
    <style>
      .cls-1 {
        fill: #fbfbfb;
        stroke: #ccc;
        stroke-miterlimit: 10;
      }
    </style>
  </defs>
  <g data-name="Слой 1" id="_Слой_1-2">
    <path d="M244.56.5H12.36C5.81.5.5,5.81.5,12.36v231.4c0,6.55,5.31,11.86,11.86,11.86h232.2c6.55,0,11.86-5.31,11.86-11.86V12.36c0-6.55-5.31-11.86-11.86-11.86ZM186.45,92.51h10.39c2.2,0,3.98,1.78,3.98,3.98v10.38c0,2.2-1.78,3.98-3.98,3.98,2.2,0,3.98,1.78,3.98,3.98v10.38c0,2.2-1.78,3.98-3.98,3.98h-10.39c-2.2,0-3.98-1.78-3.98-3.98v-10.38c0-2.2,1.78-3.98,3.98-3.98-2.2,0-3.98-1.78-3.98-3.98v-10.38c0-2.2,1.78-3.98,3.98-3.98ZM145.8,23.14c0-2.2,1.78-3.98,3.98-3.98h10.39c2.2,0,3.98,1.78,3.98,3.98,0-2.2,1.78-3.98,3.98-3.98h10.39c2.2,0,3.98,1.78,3.98,3.98v10.38c0,2.2-1.78,3.98-3.98,3.98h-10.39c-2.2,0-3.98-1.78-3.98-3.98,0,2.2-1.78,3.98-3.98,3.98h-10.39c-2.2,0-3.98-1.78-3.98-3.98v-10.38ZM145.8,59.81c0-2.2,1.78-3.98,3.98-3.98h10.39c2.2,0,3.98,1.78,3.98,3.98,0-2.2,1.78-3.98,3.98-3.98h10.39c2.2,0,3.98,1.78,3.98,3.98v10.38c0,2.2-1.78,3.98-3.98,3.98h-10.39c-2.2,0-3.98-1.78-3.98-3.98,0,2.2-1.78,3.98-3.98,3.98h-10.39c-2.2,0-3.98-1.78-3.98-3.98v-10.38ZM94.76,92.51h10.39c2.2,0,3.98,1.78,3.98,3.98v10.38c0,2.2-1.78,3.98-3.98,3.98h-10.39c-2.2,0-3.98-1.78-3.98-3.98v-10.38c0-2.2,1.78-3.98,3.98-3.98ZM29.51,8.87c10.13,0,18.34,8.21,18.34,18.34s-8.21,18.34-18.34,18.34-18.34-8.21-18.34-18.34S19.39,8.87,29.51,8.87ZM47.24,241.55c0,1.58-1.28,2.87-2.87,2.87H13.43c-1.58,0-2.87-1.28-2.87-2.87v-30.94c0-1.58,1.28-2.87,2.87-2.87h30.94c1.58,0,2.87,1.28,2.87,2.87v30.94ZM72.45,198.56c0,2.2-1.78,3.98-3.98,3.98h-10.39c-2.2,0-3.98-1.78-3.98-3.98v-10.39c0-2.2,1.78-3.98,3.98-3.98h10.39c2.2,0,3.98,1.78,3.98,3.98v10.39ZM72.45,161.88c0,2.2-1.78,3.98-3.98,3.98h-10.39c-2.2,0-3.98-1.78-3.98-3.98,0,2.2-1.78,3.98-3.98,3.98h-10.39c-2.2,0-3.98-1.78-3.98-3.98v-10.38c0-2.2,1.78-3.98,3.98-3.98h10.39c2.2,0,3.98,1.78,3.98,3.98,0-2.2,1.78-3.98,3.98-3.98h10.39c2.2,0,3.98,1.78,3.98,3.98v10.38ZM72.45,125.21c0,2.2-1.78,3.98-3.98,3.98h-10.39c-2.2,0-3.98-1.78-3.98-3.98v-10.38c0-2.2,1.78-3.98,3.98-3.98h10.39c2.2,0,3.98,1.78,3.98,3.98v10.38ZM86.81,55.84h-10.39c-2.2,0-3.98-1.78-3.98-3.98v-10.38c0-2.2,1.78-3.98,3.98-3.98h10.39c2.2,0,3.98,1.78,3.98,3.98v10.38c0,2.2-1.78,3.98-3.98,3.98ZM127.46,235.23c0,2.2-1.78,3.98-3.98,3.98h-10.39c-2.2,0-3.98-1.78-3.98-3.98,0,2.2-1.78,3.98-3.98,3.98h-10.39c-2.2,0-3.98-1.78-3.98-3.98v-10.39c0-2.2,1.78-3.98,3.98-3.98h10.39c2.2,0,3.98,1.78,3.98,3.98,0-2.2,1.78-3.98,3.98-3.98h10.39c2.2,0,3.98,1.78,3.98,3.98v10.39ZM127.46,180.22c0,2.2-1.78,3.98-3.98,3.98h-10.39c-2.2,0-3.98-1.78-3.98-3.98,0,2.2-1.78,3.98-3.98,3.98h-10.39c-2.2,0-3.98-1.78-3.98-3.98v-10.38c0-2.2,1.78-3.98,3.98-3.98h10.39c2.2,0,3.98,1.78,3.98,3.98,0-2.2,1.78-3.98,3.98-3.98h10.39c2.2,0,3.98,1.78,3.98,3.98v10.38ZM127.46,143.55c0,2.2-1.78,3.98-3.98,3.98h-10.39c-2.2,0-3.98-1.78-3.98-3.98,0,2.2-1.78,3.98-3.98,3.98h-10.39c-2.2,0-3.98-1.78-3.98-3.98v-10.38c0-2.2,1.78-3.98,3.98-3.98h10.39c2.2,0,3.98,1.78,3.98,3.98,0-2.2,1.78-3.98,3.98-3.98h10.39c2.2,0,3.98,1.78,3.98,3.98v10.38ZM127.46,70.2c0,2.2-1.78,3.98-3.98,3.98h-10.39c-2.2,0-3.98-1.78-3.98-3.98v-10.38c0-2.2,1.78-3.98,3.98-3.98h10.39c2.2,0,3.98,1.78,3.98,3.98v10.38ZM127.46,33.52c0,2.2-1.78,3.98-3.98,3.98h-10.39c-2.2,0-3.98-1.78-3.98-3.98v-10.38c0-2.2,1.78-3.98,3.98-3.98h10.39c2.2,0,3.98,1.78,3.98,3.98v10.38ZM160.16,129.19h-10.39c-2.2,0-3.98-1.78-3.98-3.98v-10.38c0-2.2,1.78-3.98,3.98-3.98h10.39c2.2,0,3.98,1.78,3.98,3.98v10.38c0,2.2-1.78,3.98-3.98,3.98ZM182.47,198.56c0,2.2-1.78,3.98-3.98,3.98h-10.39c-2.2,0-3.98-1.78-3.98-3.98v-10.39c0-2.2,1.78-3.98,3.98-3.98h10.39c2.2,0,3.98,1.78,3.98,3.98v10.39ZM196.83,165.86h-10.39c-2.2,0-3.98-1.78-3.98-3.98,0,2.2-1.78,3.98-3.98,3.98h-10.39c-2.2,0-3.98-1.78-3.98-3.98v-10.38c0-2.2,1.78-3.98,3.98-3.98h10.39c2.2,0,3.98,1.78,3.98,3.98,0-2.2,1.78-3.98,3.98-3.98h10.39c2.2,0,3.98,1.78,3.98,3.98v10.38c0,2.2-1.78,3.98-3.98,3.98ZM200.81,198.56v-10.39c0-2.2,1.78-3.98,3.98-3.98h10.39c2.2,0,3.98,1.78,3.98,3.98v10.39c0,2.2-1.78,3.98-3.98,3.98h-10.39c-2.2,0-3.98-1.78-3.98-3.98ZM245.77,244.42h-36.94c-1.2,0-1.95-1.3-1.35-2.34l18.47-32c.6-1.04,2.1-1.04,2.7,0l18.47,32c.6,1.04-.15,2.34-1.35,2.34Z" class="cls-1"/>
  </g>
</svg>